<svg xmlns="http://www.w3.org/2000/svg" viewBox="0 0 205.75 43.22"><defs><style>.cls-1{fill:#0669f8;}</style></defs><g id="Layer_2" data-name="Layer 2"><g id="Layer_1-2" data-name="Layer 1"><path class="cls-1" d="M63.14,16.53h4.51V21H63.14V36.58H57.27V21H54.45V16.53h2.82V14c0-4.39,2.58-7.29,6.46-7.29a12.73,12.73,0,0,1,3.92.63v4.82a8.06,8.06,0,0,0-2-.28,2.39,2.39,0,0,0-2.55,2.47Z"/><path class="cls-1" d="M78.85,15.75c6.42,0,10.8,4.39,10.8,10.73a14.14,14.14,0,0,1-.07,1.76l-15.7,0c.5,2.82,2.42,4.66,5.09,4.66a4.82,4.82,0,0,0,4.65-3l5.29.74c-1,3.92-5.21,6.78-10.1,6.78-6.46,0-11-4.51-11-11C67.81,20.14,72.39,15.75,78.85,15.75Zm4.85,8.93a4.94,4.94,0,0,0-5-4.43c-2.58,0-4.38,1.77-4.89,4.43Z"/><path class="cls-1" d="M102,15.75c6.43,0,10.81,4.39,10.81,10.73a12.39,12.39,0,0,1-.08,1.76l-15.7,0c.51,2.82,2.43,4.66,5.09,4.66a4.82,4.82,0,0,0,4.66-3l5.29.74c-1,3.92-5.21,6.78-10.1,6.78-6.47,0-11-4.51-11-11C91,20.14,95.57,15.75,102,15.75Zm4.86,8.93a4.94,4.94,0,0,0-5-4.43c-2.59,0-4.39,1.77-4.9,4.43Z"/><path class="cls-1" d="M123.7,37.44c-5.41,0-9.32-3.17-9.29-7.55h5c0,2,1.84,3.4,4.38,3.4,2.16,0,3.72-1,3.72-2.35,0-1.68-2.27-2.15-4.7-2.39-4.46-.54-8.18-1.25-8.18-6.14,0-3.92,3.72-6.74,8.62-6.74,5.36,0,9.24,2.9,9.24,6.93H127.3c0-1.64-1.76-2.78-4.11-2.78-1.8,0-3.25.94-3.29,2.27s1.76,1.73,4,2.08c4.07.55,9.2,1.37,9.2,6.07C133.13,34.43,129.3,37.44,123.7,37.44Z"/><path class="cls-1" d="M141.17,7.53V36.58h-5.88v-29Z"/><path class="cls-1" d="M154.4,15.75c6.42,0,10.81,4.39,10.81,10.73a12.39,12.39,0,0,1-.08,1.76l-15.7,0c.51,2.82,2.43,4.66,5.09,4.66a4.84,4.84,0,0,0,4.66-3l5.29.74c-1,3.92-5.21,6.78-10.11,6.78-6.46,0-11-4.51-11-11C143.36,20.14,147.94,15.75,154.4,15.75Zm4.86,8.93a4.94,4.94,0,0,0-5-4.43c-2.59,0-4.39,1.77-4.9,4.43Z"/><path class="cls-1" d="M176.06,37.44c-5.4,0-9.32-3.17-9.28-7.55h5c0,2,1.84,3.4,4.38,3.4,2.16,0,3.72-1,3.72-2.35,0-1.68-2.27-2.15-4.7-2.39C170.7,28,167,27.3,167,22.41c0-3.92,3.72-6.74,8.61-6.74,5.37,0,9.25,2.9,9.25,6.93h-5.17c0-1.64-1.77-2.78-4.12-2.78-1.8,0-3.24.94-3.28,2.27s1.76,1.73,4,2.08c4.07.55,9.2,1.37,9.2,6.07C185.5,34.43,181.66,37.44,176.06,37.44Z"/><path class="cls-1" d="M196.31,37.44c-5.4,0-9.32-3.17-9.28-7.55h5c0,2,1.84,3.4,4.38,3.4,2.16,0,3.72-1,3.72-2.35,0-1.68-2.27-2.15-4.7-2.39-4.46-.54-8.18-1.25-8.18-6.14,0-3.92,3.72-6.74,8.61-6.74,5.37,0,9.25,2.9,9.25,6.93h-5.17c0-1.64-1.76-2.78-4.11-2.78-1.81,0-3.25.94-3.29,2.27s1.76,1.73,4,2.08c4.07.55,9.2,1.37,9.2,6.07C205.75,34.43,201.91,37.44,196.31,37.44Z"/><rect class="cls-1" x="13.49" y="-5.2" width="16.23" height="53.62" rx="7.45" transform="translate(21.61 -8.95) rotate(45)"/><circle class="cls-1" cx="8.12" cy="8.12" r="8.12"/><circle class="cls-1" cx="35.1" cy="35.1" r="8.12"/></g></g></svg>